# xmcd
#
# Track frame offsets: 
#        150
#        13071
#        26627
#        39335
#        51772
#        65359
#        77888
#        90594
#        103003
#        115995
#        129764
#        142145
#
# Disc length: 2073 seconds
#
# Revision: 0
# Processed by: cddbd v1.5.2PL0 Copyright (c) Steve Scherf et al.
# Submitted via: ExactAudioCopy v0.99pb4
#
DISCID=9b08170c
DTITLE=Various Artist - Sioux City Sue [CD2]
DYEAR=1991
DGENRE=Classic Country
TTITLE0=Eddy Arnold - Anytime
TTITLE1=Pee Wee King and his Band featuring Redd Stewart - Tennessee W
TTITLE1=altz
TTITLE2=Elton Britt with The Skytoppers - Someday (You'll want Me to W
TTITLE2=ant You)
TTITLE3=Eddy Arnold - I'll Hold You In My Heart
TTITLE4=Tex Ritter - Deck of Cards
TTITLE5=Cindy Walker - When My Blue moon Turns to Gold Again
TTITLE6=Bing Crosby and The Jesters with Bob Haggart and His Orchestra
TTITLE6=Sioux City Sue
TTITLE7=Pee Wee King and His Golden West Cowboys - Bonapatre's Retreat
TTITLE8=Sons of the Pioneers - Cool Water
TTITLE9=Tennessee Ernie Ford - Mule Train
TTITLE10=Elton Britt with The Skytoppers - There's a Star Spangled Ban
TTITLE10=ner Waving Somewhere
TTITLE11=Vaugn Monrow and his Orchestra - Riders In the Sky (A Cowboy 
TTITLE11=Legend)
EXTD=
EXTT0=
EXTT1=
EXTT2=
EXTT3=
EXTT4=
EXTT5=
EXTT6=
EXTT7=
EXTT8=
EXTT9=
EXTT10=
EXTT11=
PLAYORDER=
